<svg width="281" height="62" viewBox="0 0 281 62" fill="none" xmlns="http://www.w3.org/2000/svg">
<path d="M273.688 27.9161L259.031 23.4249C257.55 22.9713 256.008 22.864 254.519 23.0826C252.997 19.2926 249.286 16.616 244.947 16.616H235.449C234.864 16.616 234.29 16.6655 233.73 16.7604C233.173 16.6655 232.595 16.616 232.01 16.616H228.36C224.087 16.616 220.425 19.2183 218.862 22.9259C217.443 18.9255 213.629 16.0593 209.142 16.0593H204.081C199.273 16.0593 195.231 19.3544 194.093 23.8085C193.924 23.8002 193.75 23.7961 193.577 23.7961H189.927C188.715 23.7961 187.556 24.0064 186.476 24.3858C185.395 24.0023 184.236 23.7961 183.024 23.7961H181.254C178.071 19.8658 173.204 17.5357 167.356 17.5357H167.191C163.249 17.5357 159.751 18.5956 156.91 20.4844C155.021 18.1296 152.118 16.6201 148.864 16.6201H139.366C138.78 16.6201 138.207 16.6696 137.646 16.7645C137.089 16.6696 136.512 16.6201 135.926 16.6201H132.277C128.004 16.6201 124.342 19.2225 122.779 22.93C121.36 18.9296 117.545 16.0634 113.058 16.0634H107.998C103.189 16.0634 99.1476 19.3585 98.0093 23.8126C97.8403 23.8043 97.667 23.8002 97.4938 23.8002H93.844C92.6315 23.8002 91.4726 24.0105 90.3921 24.3941C89.3116 24.0105 88.1527 23.8002 86.9402 23.8002H85.3896C82.3625 20.0885 77.5414 17.8656 71.7017 17.8656H69.0293C69.0788 16.7975 68.9633 15.7128 68.6663 14.6447C67.7425 11.3083 65.231 8.71423 62.0554 7.63372C60.6491 6.15729 58.1829 4.16122 54.331 3.70757C54.3145 3.70757 54.2938 3.70345 54.2773 3.69932C53.3247 3.5921 52.4504 3.57972 51.6503 3.62509C49.6377 1.4022 46.7261 0 43.4969 0C37.4304 0 32.4979 4.93243 32.4979 10.999V18.9998H31.0834C27.6727 18.9998 24.6456 20.6576 22.7692 23.2105C22.4887 23.2723 22.2083 23.3383 21.932 23.4249L7.27492 27.9161C2.95698 29.244 0 33.2444 0 37.7768V42.3009C0 46.8333 2.95698 50.8337 7.29142 52.1576L21.9485 56.6487C22.9383 56.9539 23.9569 57.1024 24.9673 57.1024C26.2458 57.1024 27.516 56.859 28.7079 56.393C30.638 58.9665 33.6816 60.5171 36.952 60.5171C37.0056 60.5171 37.0551 60.5171 37.1087 60.5171L43.6371 60.4181L50.1656 60.5171C50.2192 60.5171 50.2687 60.5171 50.3223 60.5171C52.8751 60.5171 55.2919 59.5686 57.1477 57.9313C59.0036 59.7335 61.5316 60.8429 64.3237 60.8429H72.5389C75.6031 60.8429 78.3869 60.2243 80.7788 59.0902C83.0801 60.4305 85.7896 61.1729 88.7631 61.1729H88.8951C90.1571 61.1729 91.3819 61.0326 92.5573 60.7646C92.9821 60.8182 93.4151 60.847 93.8564 60.847H97.5062C100.212 60.847 102.674 59.8036 104.513 58.1004C106.971 59.8408 110.023 60.847 113.405 60.847H118.304C119.525 60.847 120.692 60.6326 121.777 60.2449C123.48 60.847 125.34 61.1729 127.328 61.1729H127.394C128.672 61.1729 129.909 61.0326 131.089 60.7646C131.514 60.8182 131.951 60.847 132.392 60.847H135.943C138.261 60.847 140.397 60.0841 142.117 58.7932C144.364 60.1047 147.028 60.847 149.932 60.847H155.751C157.203 60.847 158.588 60.546 159.842 60.0016C161.789 60.7604 163.941 61.1729 166.259 61.1729H166.424C167.777 61.1729 169.072 61.0368 170.293 60.7646C170.713 60.8182 171.146 60.8429 171.583 60.8429H175.002C176.384 60.8429 177.704 60.5707 178.912 60.0758C180.718 60.7852 182.718 61.1687 184.851 61.1687H184.983C186.245 61.1687 187.469 61.0285 188.645 60.7604C189.07 60.8141 189.503 60.8429 189.944 60.8429H193.594C196.299 60.8429 198.761 59.7995 200.601 58.0963C203.054 59.8366 206.11 60.8429 209.488 60.8429H214.387C215.608 60.8429 216.775 60.6285 217.86 60.2408C219.563 60.8429 221.423 61.1687 223.411 61.1687H223.477C224.755 61.1687 225.993 61.0285 227.172 60.7604C227.597 60.8141 228.034 60.8429 228.475 60.8429H232.026C234.344 60.8429 236.48 60.08 238.2 58.7891C240.448 60.1006 243.112 60.8429 246.015 60.8429H251.834C255.422 60.8429 258.581 59.0118 260.429 56.2322L273.709 52.1658C278.039 50.8378 281 46.8375 281 42.3092V37.785C281 33.2527 278.043 29.2523 273.709 27.9284L273.688 27.9161Z" fill="white"/>
<path d="M44.2016 30.945V10.9981C44.2016 10.6183 43.8928 10.3103 43.5119 10.3103C43.1311 10.3103 42.8223 10.6183 42.8223 10.9981V30.945C42.8223 31.3249 43.1311 31.6329 43.5119 31.6329C43.8928 31.6329 44.2016 31.3249 44.2016 30.945Z" fill="#629FFC"/>
<path d="M36.9526 50.2042L31.0986 39.2612V29.3098H34.8039V34.2855H40.1842V29.3098H43.6526V50.1034L36.9526 50.2042Z" fill="#629FFC"/>
<path d="M50.3186 50.2042L56.1725 39.2612V29.3098H52.4504V34.2855H47.087V29.3098H43.6187V50.1034L50.3186 50.2042Z" fill="#A9CBFF"/>
<path d="M43.6523 11.3721C45.1074 11.3721 46.5624 14.1961 48.2543 14.6163C49.9462 15.0366 50.7414 13.675 53.1439 13.944C55.2926 14.1961 55.0896 17.121 58.7441 17.3899C57.4075 18.3313 55.5802 19.6256 52.7378 19.3735C50.5891 19.1886 49.9801 17.7766 47.5437 18.2809C45.1074 18.7683 44.566 20.298 43.6692 20.5502C43.6523 15.9611 43.6523 11.3721 43.6523 11.3721Z" fill="#629FFC"/>
<path d="M24.9695 43.5773L13.5316 40.2337V39.8404L24.9695 36.4968V33.2843L10.3105 37.7752V42.2989L24.9695 46.7898V43.5773ZM127.387 50.8547C129.852 50.8547 131.298 49.5762 132.021 47.9044H132.383V50.5269H135.932V26.9248H132.284V36.5295H131.923C131.166 34.9561 129.753 33.776 127.321 33.776H127.223C123.706 33.776 121.47 36.6279 121.47 41.4466V43.2823C121.47 48.1339 123.607 50.8547 127.321 50.8547H127.387ZM128.504 47.4782C126.203 47.4782 125.086 45.9376 125.086 43.0529V41.5777C125.086 38.6931 126.203 37.1523 128.504 37.1523H128.636C131.035 37.1523 132.284 38.7258 132.284 41.5777V43.0529C132.284 45.9703 131.035 47.4782 128.636 47.4782H128.504ZM149.954 47.3144C149.067 47.3144 148.87 47.0521 148.87 46.2654V26.9248H139.371V30.1373H145.221V45.872C145.221 48.5928 146.963 50.5269 149.921 50.5269H155.739V47.3144H149.954ZM223.46 50.8547C225.926 50.8547 227.372 49.5762 228.095 47.9044H228.456V50.5269H232.006V26.9248H228.358V36.5295H227.996C227.24 34.9561 225.827 33.776 223.395 33.776H223.296C219.78 33.776 217.544 36.6279 217.544 41.4466V43.2823C217.544 48.1339 219.681 50.8547 223.395 50.8547H223.46ZM224.578 47.4782C222.277 47.4782 221.16 45.9376 221.16 43.0529V41.5777C221.16 38.6931 222.277 37.1523 224.578 37.1523H224.71C227.109 37.1523 228.358 38.7258 228.358 41.5777V43.0529C228.358 45.9703 227.109 47.4782 224.71 47.4782H224.578ZM246.028 47.3144C245.14 47.3144 244.944 47.0521 244.944 46.2654V26.9248H235.444V30.1373H241.295V45.872C241.295 48.5928 243.037 50.5269 245.995 50.5269H251.813V47.3144H246.028ZM270.666 42.2989V37.7752L256.007 33.2843V36.4968L267.445 39.8404V40.2337L256.007 43.5773V46.7898L270.666 42.2989Z" fill="#629FFC"/>
<path d="M75.4289 38.7915C77.4335 38.1031 78.5512 36.628 78.5512 34.2677V34.0055C78.5512 30.3341 76.0858 28.1706 71.7144 28.1706H64.3193V50.5269H72.5359C76.842 50.5269 79.3727 48.3634 79.3727 44.4625V44.2331C79.3727 41.4139 77.8935 39.7749 75.4289 39.1848V38.7915ZM71.7804 31.547C74.1466 31.547 74.9358 32.3337 74.9358 34.3661V34.4972C74.9358 36.6607 74.1466 37.513 71.7804 37.513H67.9019V31.547H71.7804ZM75.7573 44.0692C75.7573 46.2982 74.9358 47.1505 72.602 47.1505H67.9019V40.8567H72.602C74.9358 40.8567 75.7573 41.709 75.7573 43.9052V44.0692ZM93.8545 34.1039V43.4791C93.8545 45.9048 92.5399 47.4783 90.0422 47.4783H89.9106C88.1353 47.4783 86.9523 46.5277 86.9523 44.1675V34.1039H83.3039V44.4625C83.3039 48.5929 85.5061 50.8548 88.7599 50.8548H88.8915C91.1268 50.8548 92.7368 49.8057 93.4929 48.1012H93.8545V50.5269H97.5029V34.1039H93.8545ZM108.008 26.3677V31.1864H113.069V26.3677H108.008ZM113.398 47.3144C112.543 47.3144 112.346 47.0522 112.346 46.2655V34.1039H102.782V37.3491H108.698V45.8721C108.698 48.5929 110.44 50.5269 113.398 50.5269H118.295V47.3144H113.398ZM171.338 42.5612V42.6596C171.338 46.3966 169.727 47.5767 167.295 47.5767H167.131C164.436 47.5767 163.187 46.3966 163.187 42.6596V36.0379C163.187 32.3009 164.436 31.1208 167.197 31.1208H167.361C170.089 31.1208 171.338 32.3009 171.338 36.0379H174.987C174.987 30.5636 171.831 27.8427 167.361 27.8427H167.197C162.694 27.8427 159.538 30.5636 159.538 36.0379V42.6596C159.538 48.1339 162.201 50.8548 166.244 50.8548H166.408C168.971 50.8548 170.418 49.9041 171.207 47.9372H171.568V50.5269H174.987V39.2176H167.69V42.5612H171.338ZM189.928 34.1039V43.4791C189.928 45.9048 188.614 47.4783 186.115 47.4783H185.985C184.209 47.4783 183.026 46.5277 183.026 44.1675V34.1039H179.378V44.4625C179.378 48.5929 181.58 50.8548 184.834 50.8548H184.965C187.201 50.8548 188.811 49.8057 189.567 48.1012H189.928V50.5269H193.577V34.1039H189.928ZM204.082 26.3677V31.1864H209.143V26.3677H204.082ZM209.472 47.3144C208.617 47.3144 208.42 47.0522 208.42 46.2655V34.1039H198.856V37.3491H204.772V45.8721C204.772 48.5929 206.514 50.5269 209.472 50.5269H214.369V47.3144H209.472Z" fill="black"/>
</svg>
