<svg width="1301" height="338" viewBox="0 0 1301 338" fill="none" xmlns="http://www.w3.org/2000/svg">
<path d="M1079.99 104C1110.76 104 1134.72 88.8361 1134.72 75.6618C1164.34 73.6813 1187 62.7121 1187 49.476C1187 34.8377 1159.28 22.9712 1125.09 22.9712C1100.42 -2.44243 1054.37 5.62976 1034.43 12.8426C990.219 -5.20478 954.994 12.0752 942.908 22.9712C908.717 22.9712 881 34.8377 881 49.476C881 64.1144 908.717 75.9809 942.908 75.9809H942.914C943.387 88.9805 968.148 99.4563 998.625 99.4563C1012.26 99.4563 1024.74 97.3603 1034.43 93.8801C1044.51 100.002 1061.16 104 1079.99 104Z" fill="white"/>
<path d="M86.7419 150.5C101.704 130.094 143.444 147.68 143.444 156.687C160.189 158.041 173 165.541 173 174.591C173 184.599 157.33 192.713 138 192.713C124.053 210.089 98.0165 204.569 86.7419 199.638C61.7477 211.977 41.8331 200.163 35 192.713C15.6699 192.713 0 184.599 0 174.591C0 164.582 15.6699 156.469 35 156.469H35.0039C35.271 147.581 73.65 134.037 86.7419 150.5Z" fill="white"/>
<path d="M466.711 311.191C448.786 307.892 439.741 311.191 438.081 321.911C436.421 332.632 460.764 335.931 466.711 331.807C480.321 343.023 494.788 336.48 500.321 331.807C524.387 340.054 537.25 332.632 538.909 321.911C540.569 311.191 518.993 308.992 511.109 311.191C488.703 294.698 474.318 307.617 466.711 311.191Z" fill="white"/>
<path d="M1209.5 185.781C1225.5 165.281 1269.39 178.696 1269.39 187.745C1287.3 189.106 1301 196.64 1301 205.732C1301 215.786 1284.24 223.937 1263.57 223.937C1248.66 241.393 1220.82 235.848 1208.76 230.894C1182.03 243.29 1160.73 231.421 1153.43 223.937C1132.76 223.937 1116 215.786 1116 205.732C1116 195.677 1132.76 187.526 1153.43 187.526H1153.43C1153.72 178.597 1195.5 169.242 1209.5 185.781Z" fill="white"/>
<path d="M321.107 0C340.918 0 356.344 12.4068 356.344 23.1858C375.411 24.8062 390 33.781 390 44.6105C390 56.5874 372.156 66.2963 350.145 66.2963C334.262 87.0893 304.614 80.4847 291.776 74.5834C263.314 89.3494 240.637 75.2112 232.856 66.2963C210.844 66.2963 193 56.5874 193 44.6105C193 32.6337 210.844 22.9247 232.856 22.9247H232.86C233.164 12.2887 249.105 3.71756 268.726 3.71756C277.502 3.71756 285.542 5.43247 291.776 8.27992C298.268 3.2713 308.985 0 321.107 0Z" fill="white"/>
</svg>
