<svg width="329" height="575" viewBox="0 0 329 575" fill="none" xmlns="http://www.w3.org/2000/svg">
<path d="M167.967 259.738L328.775 300.403L271.964 215.613C271.689 215.203 271.272 214.909 270.794 214.788L260.089 212.073L253.925 216.642L249.24 215.376C248.367 215.14 247.761 214.349 247.761 213.445V203.977C247.761 203.049 247.123 202.243 246.22 202.03L236.974 199.853C236.071 199.64 235.433 198.834 235.433 197.906V195.226C235.433 194.317 234.819 193.522 233.939 193.292L222.837 190.388C221.957 190.158 221.343 189.363 221.343 188.453V183.592C221.343 182.692 220.741 181.902 219.872 181.664L208.725 178.606C207.856 178.367 207.254 177.578 207.254 176.677V170.996C207.254 170.102 206.66 169.316 205.799 169.072L192.858 165.404C191.997 165.16 191.403 164.374 191.403 163.48V157.414C191.403 156.534 190.829 155.758 189.987 155.501L176.969 151.526C176.127 151.269 175.553 150.493 175.553 149.613V140.589C175.553 139.712 174.981 138.938 174.143 138.679L170.557 137.57C169.271 137.172 167.967 138.134 167.967 139.48V259.738Z" fill="white"/>
<path d="M136.491 133.574V131.785C136.491 130.147 134.63 129.203 133.309 130.171L126.465 135.187C125.143 136.155 123.282 135.212 123.282 133.574V129.375C123.282 127.416 120.759 126.625 119.641 128.232L-0.000320435 300.13L162.028 257.939L162.028 138.57L162.028 132.293C162.028 131.363 161.387 130.555 160.481 130.345L149.7 127.84L145.791 130.704L139.673 135.187C138.352 136.155 136.491 135.212 136.491 133.574Z" fill="#06002B"/>
<path d="M139.322 134.517V132.728C139.322 131.09 137.461 130.147 136.14 131.115L129.296 136.131C127.974 137.099 126.113 136.155 126.113 134.517V130.318C126.113 128.36 123.591 127.568 122.472 129.176L2.83073 301.073L164.859 258.883L164.859 139.514L164.859 133.236C164.859 132.306 164.218 131.499 163.312 131.288L152.531 128.783L148.622 131.648L142.504 136.131C141.183 137.099 139.322 136.155 139.322 134.517Z" fill="#AE6DCE"/>
<path d="M166.079 259.441L326.888 300.105L270.076 217.484C269.801 217.084 269.39 216.798 268.92 216.679L258.202 213.96L252.038 218.529L247.352 217.263C246.48 217.028 245.874 216.236 245.874 215.333V205.865C245.874 204.937 245.236 204.131 244.332 203.918L235.087 201.74C234.184 201.528 233.546 200.722 233.546 199.794V197.114C233.546 196.204 232.932 195.409 232.052 195.179L220.95 192.276C220.07 192.046 219.456 191.251 219.456 190.341V185.48C219.456 184.579 218.854 183.789 217.985 183.551L206.838 180.493C205.969 180.255 205.367 179.465 205.367 178.564V172.884C205.367 171.989 204.773 171.203 203.912 170.959L190.971 167.291C190.11 167.047 189.516 166.262 189.516 165.367V159.301C189.516 158.422 188.941 157.645 188.1 157.388L175.081 153.413C174.24 153.157 173.665 152.38 173.665 151.501V142.477C173.665 141.6 173.094 140.825 172.256 140.566L168.67 139.457C167.384 139.059 166.079 140.021 166.079 141.368V259.441Z" fill="#E4ADFF"/>
<path d="M231.19 248.464L234.493 249.312M251.478 253.67L234.493 249.312M219.395 238.123L234.493 241.997M239.683 243.328L234.493 241.997M234.493 241.997V249.312" stroke="white" stroke-width="2" stroke-linecap="round"/>
<path d="M100.969 241.763V234.448L121.198 229.159V236.704L111.083 239.233L100.969 241.763Z" fill="#E4ADFF"/>
<path d="M130.221 234.448L121.198 236.704M83.9832 246.121L100.969 241.763M130.221 226.8L121.198 229.159M95.7786 235.779L100.969 234.448M100.969 234.448V241.763M100.969 234.448L121.198 229.159M100.969 241.763L111.083 239.233M121.198 229.159V236.704M121.198 236.704L111.083 239.233M111.083 239.233V246.121" stroke="#06002B" stroke-width="2" stroke-linecap="round"/>
<path d="M165.136 258.883L0.943848 299.931L34.9146 316.494L165.136 279.171L293.258 316.494L328.384 300.403L165.136 258.883Z" fill="#06002B"/>
<path d="M162.696 280.587V575L2.80972 328.741C2.07683 327.612 2.6456 326.096 3.94017 325.728L162.696 280.587Z" fill="#06002B"/>
<path d="M165.136 279.171L164.583 574.056L4.69444 327.793C3.96236 326.666 4.52898 325.151 5.82143 324.781L165.136 279.171Z" fill="#AE6DCE"/>
<path d="M134.468 422.093L131.165 422.94M114.18 427.298L131.165 422.94M146.263 411.751L131.165 415.625M125.975 416.957L131.165 415.625M131.165 415.625V422.94" stroke="#06002B" stroke-width="2" stroke-linecap="round"/>
<path d="M166.079 279.171L167.966 573.536L327.302 326.863C328.033 325.731 327.458 324.214 326.159 323.852L166.079 279.171Z" fill="white"/>
<path d="M166.079 280.066V574.479L325.419 327.799C326.149 326.669 325.578 325.155 324.283 324.789L166.079 280.066Z" fill="#E4ADFF"/>
<path d="M98.9937 352.022V345.487L78.8469 351.03V356.308C78.8469 357.621 80.0908 358.578 81.36 358.241L97.5067 353.955C98.3834 353.723 98.9937 352.929 98.9937 352.022Z" fill="#E4ADFF"/>
<path d="M108.518 342.866L98.9937 345.487M65.1105 354.809L78.8469 351.03M98.9937 345.487V352.022C98.9937 352.929 98.3834 353.723 97.5067 353.955L81.36 358.241C80.0908 358.578 78.8469 357.621 78.8469 356.308V351.03M98.9937 345.487L78.8469 351.03" stroke="#06002B" stroke-width="2" stroke-linecap="round"/>
<path d="M208.388 348.705V356.922L230.682 362.864V354.388L219.535 351.547L208.388 348.705Z" fill="#AE6DCE"/>
<path d="M240.626 356.922L230.682 354.388M189.67 343.81L208.388 348.705M240.626 365.514L230.682 362.864M202.669 355.427L208.388 356.922M208.388 356.922V348.705M208.388 356.922L230.682 362.864M208.388 348.705L219.535 351.547M230.682 362.864V354.388M230.682 354.388L219.535 351.547M219.535 351.547V343.81" stroke="white" stroke-width="2" stroke-linecap="round"/>
<g filter="url(#filter0_b_50_4)">
<path d="M72 66.9587L98.5 72.5338L125 66.9587L98.5 29L72 66.9587Z" fill="#AE6DCE"/>
<path d="M98.5 72.5338L72 66.9587M98.5 72.5338L125 66.9587M98.5 72.5338V63.5M98.5 29L125 66.9587M98.5 29L72 66.9587M98.5 29V63.5M72 66.9587L98.5 63.5M125 66.9587L98.5 63.5" stroke="#06002B"/>
<path d="M98.5 72.5338L72 66.9587L98.5 63.5L125 66.9587L98.5 72.5338Z" fill="#06002B" stroke="#06002B"/>
</g>
<path d="M98.5 29.5L124.5 66.5L98.5 63V29.5Z" fill="#E4ADFF"/>
<g filter="url(#filter1_b_50_4)">
<path d="M72 71.575L98.5 67.4999L125 71.575L98.5 109.534L72 71.575Z" fill="#AE6DCE"/>
<path d="M98.5 67.4999V109.534M98.5 67.4999L72 71.575L98.5 109.534M98.5 67.4999L125 71.575L98.5 109.534" stroke="#06002B"/>
</g>
<path d="M98.5 109L98.5 68L125 71.5413L98.5 109Z" fill="#E4ADFF"/>
<path d="M102 52C104.333 52.0952 109 52.3429 109 52.5714C109 52.8571 107.688 52.2857 105.938 52.2857C104.537 52.2857 104.633 53.9284 104.625 54C104.189 53.7152 105.491 51.7273 102.034 52.2802C102.025 52.2839 102.013 52.2858 102 52.2857C102.011 52.2839 102.023 52.282 102.034 52.2802C102.115 52.2484 102.049 52.0858 102 52Z" fill="#06002B"/>
<path d="M116.996 62.2256C114.667 62.0549 110.011 61.6563 110.018 61.4278C110.028 61.1423 111.321 61.7559 113.07 61.8125C114.469 61.8579 114.427 60.2129 114.437 60.1416L112 59.5C112 59.5 114.044 59.8584 114.5 60C114.956 60.1416 114.437 60.1416 114.437 60.1416C114.864 60.4404 113.498 62.3851 116.971 61.9444C116.981 61.9411 116.992 61.9395 117.005 61.94C116.994 61.9415 116.983 61.943 116.971 61.9444C116.889 61.9736 116.95 62.1383 116.996 62.2256Z" fill="#06002B"/>
<path d="M88.083 86.7876C90.412 86.6169 95.0682 86.2183 95.0608 85.9898C95.0516 85.7043 93.7583 86.3179 92.0092 86.3746C90.6604 86.4182 90.7793 84.7286 90.6567 84.6998L93.0793 84.062C93.0793 84.062 91.0353 84.4204 90.5793 84.562C90.2557 84.6626 90.423 84.6917 90.5474 84.7002C90.3299 84.85 92.1661 86.9526 88.1052 86.5055C88.0964 86.5028 88.0859 86.5016 88.0738 86.502C88.0843 86.5032 88.0948 86.5044 88.1052 86.5055C88.1916 86.5321 88.1296 86.6994 88.083 86.7876Z" fill="#06002B"/>
<path d="M125.5 67L98.5 28L125 66.5L125.5 67Z" fill="white"/>
<path d="M125.5 71L98.5 68L124.5 71.5L107.5 96.5L125.5 71Z" fill="white"/>
<g filter="url(#filter2_b_50_4)">
<path d="M187 10.8116L193.674 12.2157L200.348 10.8116L193.674 1.25195L187 10.8116Z" fill="#AE6DCE"/>
<path d="M193.674 12.2157L187 10.8116M193.674 12.2157L200.348 10.8116M193.674 12.2157V9.94058M193.674 1.25195L200.348 10.8116M193.674 1.25195L187 10.8116M193.674 1.25195V9.94058M187 10.8116L193.674 9.94058M200.348 10.8116L193.674 9.94058" stroke="#06002B"/>
<path d="M193.674 12.2158L187 10.8117L193.674 9.94067L200.348 10.8117L193.674 12.2158Z" fill="#06002B" stroke="#06002B"/>
</g>
<path d="M193.674 1.37769L200.222 10.6959L193.674 9.81446V1.37769Z" fill="#E4ADFF"/>
<g filter="url(#filter3_b_50_4)">
<path d="M187 11.974L193.674 10.9477L200.348 11.974L193.674 21.5337L187 11.974Z" fill="#AE6DCE"/>
<path d="M193.674 10.9477V21.5337M193.674 10.9477L187 11.974L193.674 21.5337M193.674 10.9477L200.348 11.974L193.674 21.5337" stroke="#06002B"/>
</g>
<path d="M193.674 21.3994L193.674 11.0738L200.348 11.9657L193.674 21.3994Z" fill="#E4ADFF"/>
<path d="M194.555 7.04419C195.143 7.06817 196.318 7.13054 196.318 7.1881C196.318 7.26006 195.988 7.11614 195.547 7.11614C195.194 7.11614 195.218 7.52985 195.216 7.54788C195.106 7.47616 195.434 6.97551 194.564 7.11476C194.561 7.11568 194.559 7.11617 194.555 7.11614C194.558 7.11568 194.561 7.11522 194.564 7.11476C194.584 7.10674 194.567 7.06579 194.555 7.04419Z" fill="#06002B"/>
<path d="M198.332 9.61963C197.745 9.57663 196.573 9.47625 196.575 9.41872C196.577 9.3468 196.903 9.50134 197.343 9.51561C197.696 9.52702 197.685 9.11275 197.688 9.0948L197.074 8.93321C197.074 8.93321 197.589 9.02345 197.703 9.05913C197.818 9.0948 197.688 9.0948 197.688 9.0948C197.795 9.17004 197.451 9.65981 198.326 9.54882C198.328 9.54798 198.331 9.54758 198.334 9.54771C198.331 9.54809 198.329 9.54845 198.326 9.54882C198.305 9.55617 198.32 9.59764 198.332 9.61963Z" fill="#06002B"/>
<path d="M191.05 15.8054C191.637 15.7624 192.809 15.662 192.808 15.6045C192.805 15.5326 192.48 15.6871 192.039 15.7014C191.699 15.7124 191.729 15.2869 191.698 15.2796L192.309 15.119C192.309 15.119 191.794 15.2092 191.679 15.2449C191.597 15.2702 191.64 15.2776 191.671 15.2797C191.616 15.3175 192.081 15.8497 191.048 15.7335C191.081 15.7322 191.063 15.7809 191.05 15.8054Z" fill="#06002B"/>
<path d="M200.474 10.8219L193.674 1L200.348 10.696L200.474 10.8219Z" fill="white"/>
<path d="M200.474 11.8293L193.674 11.0737L200.222 11.9552L195.94 18.2513L200.474 11.8293Z" fill="white"/>
<defs>
<filter id="filter0_b_50_4" x="70.1572" y="27.1265" width="56.6855" height="46.9182" filterUnits="userSpaceOnUse" color-interpolation-filters="sRGB">
<feFlood flood-opacity="0" result="BackgroundImageFix"/>
<feGaussianBlur in="BackgroundImageFix" stdDeviation="0.5"/>
<feComposite in2="SourceAlpha" operator="in" result="effect1_backgroundBlur_50_4"/>
<feBlend mode="normal" in="SourceGraphic" in2="effect1_backgroundBlur_50_4" result="shape"/>
</filter>
<filter id="filter1_b_50_4" x="70.1304" y="65.9939" width="56.7393" height="45.4133" filterUnits="userSpaceOnUse" color-interpolation-filters="sRGB">
<feFlood flood-opacity="0" result="BackgroundImageFix"/>
<feGaussianBlur in="BackgroundImageFix" stdDeviation="0.5"/>
<feComposite in2="SourceAlpha" operator="in" result="effect1_backgroundBlur_50_4"/>
<feBlend mode="normal" in="SourceGraphic" in2="effect1_backgroundBlur_50_4" result="shape"/>
</filter>
<filter id="filter2_b_50_4" x="185.157" y="-0.621582" width="17.0332" height="14.3484" filterUnits="userSpaceOnUse" color-interpolation-filters="sRGB">
<feFlood flood-opacity="0" result="BackgroundImageFix"/>
<feGaussianBlur in="BackgroundImageFix" stdDeviation="0.5"/>
<feComposite in2="SourceAlpha" operator="in" result="effect1_backgroundBlur_50_4"/>
<feBlend mode="normal" in="SourceGraphic" in2="effect1_backgroundBlur_50_4" result="shape"/>
</filter>
<filter id="filter3_b_50_4" x="185.13" y="9.44189" width="17.0869" height="13.9653" filterUnits="userSpaceOnUse" color-interpolation-filters="sRGB">
<feFlood flood-opacity="0" result="BackgroundImageFix"/>
<feGaussianBlur in="BackgroundImageFix" stdDeviation="0.5"/>
<feComposite in2="SourceAlpha" operator="in" result="effect1_backgroundBlur_50_4"/>
<feBlend mode="normal" in="SourceGraphic" in2="effect1_backgroundBlur_50_4" result="shape"/>
</filter>
</defs>
</svg>
