<svg width="788" height="94" viewBox="0 0 788 94" fill="none" xmlns="http://www.w3.org/2000/svg">
<mask id="path-1-outside-1_39_46" maskUnits="userSpaceOnUse" x="0" y="0" width="788" height="94" fill="black">
<rect fill="white" width="788" height="94"/>
<path d="M87.1944 9.0698C87.1944 8.5349 86.7681 8 86.2351 8H50.9547C50.4218 8 49.8888 8.5349 49.8888 9.0698V35.9219H45.3056V9.0698C45.3056 8.5349 44.8792 8 44.2397 8H8.95929C8.42635 8 8 8.5349 8 9.0698V84.9188C8 85.5607 8.42635 85.9886 8.95929 85.9886H44.2397C44.8792 85.9886 45.3056 85.5607 45.3056 84.9188V59.8854H49.8888V84.9188C49.8888 85.5607 50.4218 85.9886 50.9547 85.9886H86.2351C86.7681 85.9886 87.1944 85.5607 87.1944 84.9188V9.0698Z"/>
<path d="M156.182 8.64188C156.076 8.21396 155.649 8 155.223 8H121.328C120.795 8 120.476 8.21396 120.262 8.64188L94.1484 84.5979C93.8287 85.4537 94.255 85.9886 95.1077 85.9886H130.068C130.814 85.9886 131.134 85.5607 131.347 84.9188L133.373 78.821H142.965L144.991 84.9188C145.204 85.5607 145.524 85.9886 146.27 85.9886H181.124C181.976 85.9886 182.403 85.4537 182.083 84.5979L156.182 8.64188ZM141.473 74.3278H134.865L138.169 64.0577L141.473 74.3278Z"/>
<path d="M259.283 44.2663C259.283 24.047 240.737 8 220.592 8C199.168 8 181.687 25.5448 181.687 47.0478C181.687 68.5509 199.168 85.9886 220.592 85.9886C240.843 85.9886 259.283 70.0486 259.283 49.8293C259.283 49.2944 258.857 48.7595 258.217 48.7595H225.069C224.749 48.7595 224.429 48.8665 224.216 49.1874C223.363 50.4712 222.084 51.327 220.592 51.327C218.247 51.327 216.328 49.4014 216.328 47.0478C216.328 44.6942 218.247 42.7686 220.592 42.7686C222.084 42.7686 223.363 43.5175 224.216 44.8012C224.429 45.1222 224.749 45.3361 225.069 45.3361H258.217C258.857 45.3361 259.283 44.8012 259.283 44.2663Z"/>
<path d="M266.245 8C265.606 8 265.18 8.32094 265.18 9.0698V84.9188C265.18 85.5607 265.606 85.9886 266.245 85.9886H301.419C302.059 85.9886 302.485 85.5607 302.485 84.9188V59.3505H305.47L316.128 84.9188C316.448 85.5607 316.661 85.9886 317.514 85.9886H353.647C354.393 85.9886 354.606 85.6677 354.18 84.7049L338.405 47.1548L354.18 9.28377C354.606 8.32094 354.393 8 353.647 8H317.621C316.768 8 316.555 8.42792 316.235 9.0698L305.256 35.387H302.485V9.0698C302.485 8.5349 302.059 8 301.419 8H266.245Z"/>
<path d="M421.714 8.64188C421.607 8.21396 421.181 8 420.755 8H386.86C386.327 8 386.007 8.21396 385.794 8.64188L359.68 84.5979C359.36 85.4537 359.787 85.9886 360.639 85.9886H395.6C396.346 85.9886 396.666 85.5607 396.879 84.9188L398.904 78.821H408.497L410.522 84.9188C410.735 85.5607 411.055 85.9886 411.801 85.9886H446.655C447.508 85.9886 447.934 85.4537 447.615 84.5979L421.714 8.64188ZM407.005 74.3278H400.396L403.701 64.0577L407.005 74.3278Z"/>
<path d="M446.513 8C445.98 8 445.554 8.42792 445.554 8.96282V46.5129C445.554 47.0478 445.98 47.4757 446.513 47.4757H465.912V85.0258C465.912 85.5607 466.338 85.9886 466.871 85.9886H501.512C502.045 85.9886 502.578 85.5607 502.578 85.0258V47.4757H521.977C522.51 47.4757 522.936 47.0478 522.936 46.5129V8.96282C522.936 8.42792 522.51 8 521.977 8H446.513Z"/>
<path d="M609.098 9.0698C609.098 8.5349 608.672 8 608.139 8H572.858C572.325 8 571.792 8.5349 571.792 9.0698V35.9219H567.209V9.0698C567.209 8.5349 566.783 8 566.143 8H530.863C530.33 8 529.903 8.5349 529.903 9.0698V84.9188C529.903 85.5607 530.33 85.9886 530.863 85.9886H566.143C566.783 85.9886 567.209 85.5607 567.209 84.9188V59.8854H571.792V84.9188C571.792 85.5607 572.325 85.9886 572.858 85.9886H608.139C608.672 85.9886 609.098 85.5607 609.098 84.9188V9.0698Z"/>
<path d="M655.169 8C633.532 8 616.052 25.3308 616.052 47.0478C616.052 68.7648 633.532 85.9886 655.169 85.9886C676.807 85.9886 694.287 68.7648 694.287 47.0478C694.287 25.3308 676.807 8 655.169 8ZM655.169 50.7921C653.144 50.7921 651.439 49.1874 651.439 47.0478C651.439 45.0152 653.144 43.3035 655.169 43.3035C657.195 43.3035 658.9 45.0152 658.9 47.0478C658.9 49.1874 657.195 50.7921 655.169 50.7921Z"/>
<path d="M738.005 46.7269C738.005 46.5129 738.218 46.5129 738.218 46.7269L743.121 85.0258C743.227 85.4537 743.547 85.8817 743.973 85.9886H778.934C779.467 85.9886 780 85.5607 780 85.0258V9.0698C780 8.42792 779.467 8 778.934 8H744.293C743.76 8 743.334 8.42792 743.334 9.0698V46.4059C743.334 46.6199 743.121 46.6199 743.121 46.4059L738.324 8.96282C738.218 8.32094 737.791 8 737.152 8H702.298C701.765 8 701.339 8.42792 701.339 9.0698V85.0258C701.339 85.5607 701.765 85.9886 702.298 85.9886H736.939C737.472 85.9886 738.005 85.5607 738.005 85.0258V46.7269Z"/>
</mask>
<path d="M87.1944 9.0698C87.1944 8.5349 86.7681 8 86.2351 8H50.9547C50.4218 8 49.8888 8.5349 49.8888 9.0698V35.9219H45.3056V9.0698C45.3056 8.5349 44.8792 8 44.2397 8H8.95929C8.42635 8 8 8.5349 8 9.0698V84.9188C8 85.5607 8.42635 85.9886 8.95929 85.9886H44.2397C44.8792 85.9886 45.3056 85.5607 45.3056 84.9188V59.8854H49.8888V84.9188C49.8888 85.5607 50.4218 85.9886 50.9547 85.9886H86.2351C86.7681 85.9886 87.1944 85.5607 87.1944 84.9188V9.0698Z" fill="#06002B"/>
<path d="M156.182 8.64188C156.076 8.21396 155.649 8 155.223 8H121.328C120.795 8 120.476 8.21396 120.262 8.64188L94.1484 84.5979C93.8287 85.4537 94.255 85.9886 95.1077 85.9886H130.068C130.814 85.9886 131.134 85.5607 131.347 84.9188L133.373 78.821H142.965L144.991 84.9188C145.204 85.5607 145.524 85.9886 146.27 85.9886H181.124C181.976 85.9886 182.403 85.4537 182.083 84.5979L156.182 8.64188ZM141.473 74.3278H134.865L138.169 64.0577L141.473 74.3278Z" fill="#06002B"/>
<path d="M259.283 44.2663C259.283 24.047 240.737 8 220.592 8C199.168 8 181.687 25.5448 181.687 47.0478C181.687 68.5509 199.168 85.9886 220.592 85.9886C240.843 85.9886 259.283 70.0486 259.283 49.8293C259.283 49.2944 258.857 48.7595 258.217 48.7595H225.069C224.749 48.7595 224.429 48.8665 224.216 49.1874C223.363 50.4712 222.084 51.327 220.592 51.327C218.247 51.327 216.328 49.4014 216.328 47.0478C216.328 44.6942 218.247 42.7686 220.592 42.7686C222.084 42.7686 223.363 43.5175 224.216 44.8012C224.429 45.1222 224.749 45.3361 225.069 45.3361H258.217C258.857 45.3361 259.283 44.8012 259.283 44.2663Z" fill="#06002B"/>
<path d="M266.245 8C265.606 8 265.18 8.32094 265.18 9.0698V84.9188C265.18 85.5607 265.606 85.9886 266.245 85.9886H301.419C302.059 85.9886 302.485 85.5607 302.485 84.9188V59.3505H305.47L316.128 84.9188C316.448 85.5607 316.661 85.9886 317.514 85.9886H353.647C354.393 85.9886 354.606 85.6677 354.18 84.7049L338.405 47.1548L354.18 9.28377C354.606 8.32094 354.393 8 353.647 8H317.621C316.768 8 316.555 8.42792 316.235 9.0698L305.256 35.387H302.485V9.0698C302.485 8.5349 302.059 8 301.419 8H266.245Z" fill="#06002B"/>
<path d="M421.714 8.64188C421.607 8.21396 421.181 8 420.755 8H386.86C386.327 8 386.007 8.21396 385.794 8.64188L359.68 84.5979C359.36 85.4537 359.787 85.9886 360.639 85.9886H395.6C396.346 85.9886 396.666 85.5607 396.879 84.9188L398.904 78.821H408.497L410.522 84.9188C410.735 85.5607 411.055 85.9886 411.801 85.9886H446.655C447.508 85.9886 447.934 85.4537 447.615 84.5979L421.714 8.64188ZM407.005 74.3278H400.396L403.701 64.0577L407.005 74.3278Z" fill="#06002B"/>
<path d="M446.513 8C445.98 8 445.554 8.42792 445.554 8.96282V46.5129C445.554 47.0478 445.98 47.4757 446.513 47.4757H465.912V85.0258C465.912 85.5607 466.338 85.9886 466.871 85.9886H501.512C502.045 85.9886 502.578 85.5607 502.578 85.0258V47.4757H521.977C522.51 47.4757 522.936 47.0478 522.936 46.5129V8.96282C522.936 8.42792 522.51 8 521.977 8H446.513Z" fill="#06002B"/>
<path d="M609.098 9.0698C609.098 8.5349 608.672 8 608.139 8H572.858C572.325 8 571.792 8.5349 571.792 9.0698V35.9219H567.209V9.0698C567.209 8.5349 566.783 8 566.143 8H530.863C530.33 8 529.903 8.5349 529.903 9.0698V84.9188C529.903 85.5607 530.33 85.9886 530.863 85.9886H566.143C566.783 85.9886 567.209 85.5607 567.209 84.9188V59.8854H571.792V84.9188C571.792 85.5607 572.325 85.9886 572.858 85.9886H608.139C608.672 85.9886 609.098 85.5607 609.098 84.9188V9.0698Z" fill="#06002B"/>
<path d="M655.169 8C633.532 8 616.052 25.3308 616.052 47.0478C616.052 68.7648 633.532 85.9886 655.169 85.9886C676.807 85.9886 694.287 68.7648 694.287 47.0478C694.287 25.3308 676.807 8 655.169 8ZM655.169 50.7921C653.144 50.7921 651.439 49.1874 651.439 47.0478C651.439 45.0152 653.144 43.3035 655.169 43.3035C657.195 43.3035 658.9 45.0152 658.9 47.0478C658.9 49.1874 657.195 50.7921 655.169 50.7921Z" fill="#06002B"/>
<path d="M738.005 46.7269C738.005 46.5129 738.218 46.5129 738.218 46.7269L743.121 85.0258C743.227 85.4537 743.547 85.8817 743.973 85.9886H778.934C779.467 85.9886 780 85.5607 780 85.0258V9.0698C780 8.42792 779.467 8 778.934 8H744.293C743.76 8 743.334 8.42792 743.334 9.0698V46.4059C743.334 46.6199 743.121 46.6199 743.121 46.4059L738.324 8.96282C738.218 8.32094 737.791 8 737.152 8H702.298C701.765 8 701.339 8.42792 701.339 9.0698V85.0258C701.339 85.5607 701.765 85.9886 702.298 85.9886H736.939C737.472 85.9886 738.005 85.5607 738.005 85.0258V46.7269Z" fill="#06002B"/>
<path d="M87.1944 9.0698C87.1944 8.5349 86.7681 8 86.2351 8H50.9547C50.4218 8 49.8888 8.5349 49.8888 9.0698V35.9219H45.3056V9.0698C45.3056 8.5349 44.8792 8 44.2397 8H8.95929C8.42635 8 8 8.5349 8 9.0698V84.9188C8 85.5607 8.42635 85.9886 8.95929 85.9886H44.2397C44.8792 85.9886 45.3056 85.5607 45.3056 84.9188V59.8854H49.8888V84.9188C49.8888 85.5607 50.4218 85.9886 50.9547 85.9886H86.2351C86.7681 85.9886 87.1944 85.5607 87.1944 84.9188V9.0698Z" stroke="#06002B" stroke-width="16" mask="url(#path-1-outside-1_39_46)"/>
<path d="M156.182 8.64188C156.076 8.21396 155.649 8 155.223 8H121.328C120.795 8 120.476 8.21396 120.262 8.64188L94.1484 84.5979C93.8287 85.4537 94.255 85.9886 95.1077 85.9886H130.068C130.814 85.9886 131.134 85.5607 131.347 84.9188L133.373 78.821H142.965L144.991 84.9188C145.204 85.5607 145.524 85.9886 146.27 85.9886H181.124C181.976 85.9886 182.403 85.4537 182.083 84.5979L156.182 8.64188ZM141.473 74.3278H134.865L138.169 64.0577L141.473 74.3278Z" stroke="#06002B" stroke-width="16" mask="url(#path-1-outside-1_39_46)"/>
<path d="M259.283 44.2663C259.283 24.047 240.737 8 220.592 8C199.168 8 181.687 25.5448 181.687 47.0478C181.687 68.5509 199.168 85.9886 220.592 85.9886C240.843 85.9886 259.283 70.0486 259.283 49.8293C259.283 49.2944 258.857 48.7595 258.217 48.7595H225.069C224.749 48.7595 224.429 48.8665 224.216 49.1874C223.363 50.4712 222.084 51.327 220.592 51.327C218.247 51.327 216.328 49.4014 216.328 47.0478C216.328 44.6942 218.247 42.7686 220.592 42.7686C222.084 42.7686 223.363 43.5175 224.216 44.8012C224.429 45.1222 224.749 45.3361 225.069 45.3361H258.217C258.857 45.3361 259.283 44.8012 259.283 44.2663Z" stroke="#06002B" stroke-width="16" mask="url(#path-1-outside-1_39_46)"/>
<path d="M266.245 8C265.606 8 265.18 8.32094 265.18 9.0698V84.9188C265.18 85.5607 265.606 85.9886 266.245 85.9886H301.419C302.059 85.9886 302.485 85.5607 302.485 84.9188V59.3505H305.47L316.128 84.9188C316.448 85.5607 316.661 85.9886 317.514 85.9886H353.647C354.393 85.9886 354.606 85.6677 354.18 84.7049L338.405 47.1548L354.18 9.28377C354.606 8.32094 354.393 8 353.647 8H317.621C316.768 8 316.555 8.42792 316.235 9.0698L305.256 35.387H302.485V9.0698C302.485 8.5349 302.059 8 301.419 8H266.245Z" stroke="#06002B" stroke-width="16" mask="url(#path-1-outside-1_39_46)"/>
<path d="M421.714 8.64188C421.607 8.21396 421.181 8 420.755 8H386.86C386.327 8 386.007 8.21396 385.794 8.64188L359.68 84.5979C359.36 85.4537 359.787 85.9886 360.639 85.9886H395.6C396.346 85.9886 396.666 85.5607 396.879 84.9188L398.904 78.821H408.497L410.522 84.9188C410.735 85.5607 411.055 85.9886 411.801 85.9886H446.655C447.508 85.9886 447.934 85.4537 447.615 84.5979L421.714 8.64188ZM407.005 74.3278H400.396L403.701 64.0577L407.005 74.3278Z" stroke="#06002B" stroke-width="16" mask="url(#path-1-outside-1_39_46)"/>
<path d="M446.513 8C445.98 8 445.554 8.42792 445.554 8.96282V46.5129C445.554 47.0478 445.98 47.4757 446.513 47.4757H465.912V85.0258C465.912 85.5607 466.338 85.9886 466.871 85.9886H501.512C502.045 85.9886 502.578 85.5607 502.578 85.0258V47.4757H521.977C522.51 47.4757 522.936 47.0478 522.936 46.5129V8.96282C522.936 8.42792 522.51 8 521.977 8H446.513Z" stroke="#06002B" stroke-width="16" mask="url(#path-1-outside-1_39_46)"/>
<path d="M609.098 9.0698C609.098 8.5349 608.672 8 608.139 8H572.858C572.325 8 571.792 8.5349 571.792 9.0698V35.9219H567.209V9.0698C567.209 8.5349 566.783 8 566.143 8H530.863C530.33 8 529.903 8.5349 529.903 9.0698V84.9188C529.903 85.5607 530.33 85.9886 530.863 85.9886H566.143C566.783 85.9886 567.209 85.5607 567.209 84.9188V59.8854H571.792V84.9188C571.792 85.5607 572.325 85.9886 572.858 85.9886H608.139C608.672 85.9886 609.098 85.5607 609.098 84.9188V9.0698Z" stroke="#06002B" stroke-width="16" mask="url(#path-1-outside-1_39_46)"/>
<path d="M655.169 8C633.532 8 616.052 25.3308 616.052 47.0478C616.052 68.7648 633.532 85.9886 655.169 85.9886C676.807 85.9886 694.287 68.7648 694.287 47.0478C694.287 25.3308 676.807 8 655.169 8ZM655.169 50.7921C653.144 50.7921 651.439 49.1874 651.439 47.0478C651.439 45.0152 653.144 43.3035 655.169 43.3035C657.195 43.3035 658.9 45.0152 658.9 47.0478C658.9 49.1874 657.195 50.7921 655.169 50.7921Z" stroke="#06002B" stroke-width="16" mask="url(#path-1-outside-1_39_46)"/>
<path d="M738.005 46.7269C738.005 46.5129 738.218 46.5129 738.218 46.7269L743.121 85.0258C743.227 85.4537 743.547 85.8817 743.973 85.9886H778.934C779.467 85.9886 780 85.5607 780 85.0258V9.0698C780 8.42792 779.467 8 778.934 8H744.293C743.76 8 743.334 8.42792 743.334 9.0698V46.4059C743.334 46.6199 743.121 46.6199 743.121 46.4059L738.324 8.96282C738.218 8.32094 737.791 8 737.152 8H702.298C701.765 8 701.339 8.42792 701.339 9.0698V85.0258C701.339 85.5607 701.765 85.9886 702.298 85.9886H736.939C737.472 85.9886 738.005 85.5607 738.005 85.0258V46.7269Z" stroke="#06002B" stroke-width="16" mask="url(#path-1-outside-1_39_46)"/>
<circle cx="654" cy="46.5864" r="10" fill="#06002B"/>
<path d="M87.1944 5.0698C87.1944 4.5349 86.7681 4 86.2351 4H50.9547C50.4218 4 49.8888 4.5349 49.8888 5.0698V31.9219H45.3056V5.0698C45.3056 4.5349 44.8792 4 44.2397 4H8.95929C8.42635 4 8 4.5349 8 5.0698V80.9188C8 81.5607 8.42635 81.9886 8.95929 81.9886H44.2397C44.8792 81.9886 45.3056 81.5607 45.3056 80.9188V55.8854H49.8888V80.9188C49.8888 81.5607 50.4218 81.9886 50.9547 81.9886H86.2351C86.7681 81.9886 87.1944 81.5607 87.1944 80.9188V5.0698Z" fill="white"/>
<path d="M156.182 4.64188C156.076 4.21396 155.649 4 155.223 4H121.328C120.795 4 120.476 4.21396 120.262 4.64188L94.1484 80.5979C93.8287 81.4537 94.255 81.9886 95.1077 81.9886H130.068C130.814 81.9886 131.134 81.5607 131.347 80.9188L133.373 74.821H142.965L144.991 80.9188C145.204 81.5607 145.524 81.9886 146.27 81.9886H181.124C181.976 81.9886 182.403 81.4537 182.083 80.5979L156.182 4.64188ZM141.473 70.3278H134.865L138.169 60.0577L141.473 70.3278Z" fill="white"/>
<path d="M259.283 40.2663C259.283 20.047 240.737 4 220.592 4C199.168 4 181.687 21.5448 181.687 43.0478C181.687 64.5509 199.168 81.9886 220.592 81.9886C240.843 81.9886 259.283 66.0486 259.283 45.8293C259.283 45.2944 258.857 44.7595 258.217 44.7595H225.069C224.749 44.7595 224.429 44.8665 224.216 45.1874C223.363 46.4712 222.084 47.327 220.592 47.327C218.247 47.327 216.328 45.4014 216.328 43.0478C216.328 40.6942 218.247 38.7686 220.592 38.7686C222.084 38.7686 223.363 39.5175 224.216 40.8012C224.429 41.1222 224.749 41.3361 225.069 41.3361H258.217C258.857 41.3361 259.283 40.8012 259.283 40.2663Z" fill="white"/>
<path d="M266.245 4C265.606 4 265.18 4.32094 265.18 5.0698V80.9188C265.18 81.5607 265.606 81.9886 266.245 81.9886H301.419C302.059 81.9886 302.485 81.5607 302.485 80.9188V55.3505H305.47L316.128 80.9188C316.448 81.5607 316.661 81.9886 317.514 81.9886H353.647C354.393 81.9886 354.606 81.6677 354.18 80.7049L338.405 43.1548L354.18 5.28377C354.606 4.32094 354.393 4 353.647 4H317.621C316.768 4 316.555 4.42792 316.235 5.0698L305.256 31.387H302.485V5.0698C302.485 4.5349 302.059 4 301.419 4H266.245Z" fill="white"/>
<path d="M421.714 4.64188C421.607 4.21396 421.181 4 420.755 4H386.86C386.327 4 386.007 4.21396 385.794 4.64188L359.68 80.5979C359.36 81.4537 359.787 81.9886 360.639 81.9886H395.6C396.346 81.9886 396.666 81.5607 396.879 80.9188L398.904 74.821H408.497L410.522 80.9188C410.735 81.5607 411.055 81.9886 411.801 81.9886H446.655C447.508 81.9886 447.934 81.4537 447.615 80.5979L421.714 4.64188ZM407.005 70.3278H400.396L403.701 60.0577L407.005 70.3278Z" fill="white"/>
<path d="M446.513 4C445.98 4 445.554 4.42792 445.554 4.96282V42.5129C445.554 43.0478 445.98 43.4757 446.513 43.4757H465.912V81.0258C465.912 81.5607 466.338 81.9886 466.871 81.9886H501.512C502.045 81.9886 502.578 81.5607 502.578 81.0258V43.4757H521.977C522.51 43.4757 522.936 43.0478 522.936 42.5129V4.96282C522.936 4.42792 522.51 4 521.977 4H446.513Z" fill="white"/>
<path d="M609.098 5.0698C609.098 4.5349 608.672 4 608.139 4H572.858C572.325 4 571.792 4.5349 571.792 5.0698V31.9219H567.209V5.0698C567.209 4.5349 566.783 4 566.143 4H530.863C530.33 4 529.904 4.5349 529.904 5.0698V80.9188C529.904 81.5607 530.33 81.9886 530.863 81.9886H566.143C566.783 81.9886 567.209 81.5607 567.209 80.9188V55.8854H571.792V80.9188C571.792 81.5607 572.325 81.9886 572.858 81.9886H608.139C608.672 81.9886 609.098 81.5607 609.098 80.9188V5.0698Z" fill="white"/>
<path d="M655.169 4C633.532 4 616.052 21.3308 616.052 43.0478C616.052 64.7648 633.532 81.9886 655.169 81.9886C676.807 81.9886 694.287 64.7648 694.287 43.0478C694.287 21.3308 676.807 4 655.169 4ZM655.169 46.7921C653.144 46.7921 651.439 45.1874 651.439 43.0478C651.439 41.0152 653.144 39.3035 655.169 39.3035C657.195 39.3035 658.9 41.0152 658.9 43.0478C658.9 45.1874 657.195 46.7921 655.169 46.7921Z" fill="white"/>
<path d="M738.005 42.7269C738.005 42.5129 738.218 42.5129 738.218 42.7269L743.121 81.0258C743.227 81.4537 743.547 81.8817 743.973 81.9886H778.934C779.467 81.9886 780 81.5607 780 81.0258V5.0698C780 4.42792 779.467 4 778.934 4H744.293C743.76 4 743.334 4.42792 743.334 5.0698V42.4059C743.334 42.6199 743.121 42.6199 743.121 42.4059L738.324 4.96282C738.218 4.32094 737.791 4 737.152 4H702.298C701.765 4 701.338 4.42792 701.338 5.0698V81.0258C701.338 81.5607 701.765 81.9886 702.298 81.9886H736.939C737.472 81.9886 738.005 81.5607 738.005 81.0258V42.7269Z" fill="white"/>
</svg>
