<svg width="194" height="40" viewBox="0 0 194 40" fill="none" xmlns="http://www.w3.org/2000/svg">
<mask id="path-1-outside-1_39_50" maskUnits="userSpaceOnUse" x="0" y="0" width="194" height="40" fill="black">
<rect fill="white" width="194" height="40"/>
<path d="M4.43574 4C4.13072 4 4 4.21948 4 4.48285V35.6049C4 35.8683 4.1743 36 4.43574 36H18.7279C18.9894 36 19.2072 35.7805 19.2072 35.5171V26.1674H24.0004C29.9264 26.1674 34.7631 21.2949 34.7631 14.8861C34.7631 8.91632 29.9264 4 24.0004 4H4.43574ZM18.7279 16.5542V13.8326H19.4687C20.253 13.8326 20.863 14.4472 20.863 15.1934C20.863 15.9835 20.253 16.5542 19.4687 16.5542H18.7279Z"/>
<path d="M61.6368 24.5871C65.4713 22.9191 68.0422 18.9684 68.0422 14.7106C68.0422 8.34568 63.4669 4 57.1487 4H38.0199C37.7584 4 37.5841 4.17558 37.5841 4.43896V35.561C37.5841 35.8244 37.7584 36 38.0199 36H50.8741C51.1356 36 51.3099 35.8244 51.3099 35.561V32.1811L53.8807 35.8244C53.9679 35.9561 54.0986 36 54.2293 36H68.6522C68.8265 36 68.9572 35.9122 69.0444 35.7805C69.1315 35.6488 69.1315 35.4733 69.0444 35.3416L61.6368 24.5871ZM51.4406 16.0713V13.3498H52.1813C52.9657 13.3498 53.6193 13.9643 53.6193 14.7106C53.6193 15.4568 52.9657 16.0713 52.1813 16.0713H51.4406Z"/>
<path d="M79.3315 19.5391C83.6889 19.5391 87.1748 16.0274 87.1748 11.6818C87.1748 7.33608 83.6889 4 79.3315 4C75.0177 4 71.4883 7.33608 71.4883 11.6818C71.4883 16.0274 75.0177 19.5391 79.3315 19.5391ZM72.1419 20.4609C71.924 20.4609 71.7061 20.6804 71.7061 20.8999V35.561C71.7061 35.8244 71.924 36 72.1419 36H86.5212C86.7391 36 86.9569 35.8244 86.9569 35.561V20.8999C86.9569 20.6804 86.7391 20.4609 86.5212 20.4609H72.1419Z"/>
<path d="M113.185 22.1728C113.141 22.1728 113.011 22.1728 112.967 22.085C112.923 21.9973 112.967 21.9095 113.011 21.8217L120.767 4.83402C121.028 4.26337 120.723 4 120.375 4H89.9601C89.7423 4 89.568 4.21948 89.568 4.43896V17.476C89.568 17.6955 89.7423 17.8711 89.9601 17.8711H97.3241C97.3677 17.8711 97.4984 17.8711 97.542 17.9588C97.5855 18.0466 97.542 18.1344 97.4984 18.2222L89.6551 35.2099C89.3937 35.7366 89.6987 36 90.0473 36H120.462C120.68 36 120.854 35.8244 120.854 35.6049V22.5679C120.854 22.3484 120.68 22.1728 120.462 22.1728H113.185Z"/>
<path d="M124.104 4C123.842 4 123.668 4.21948 123.668 4.43896V35.6049C123.668 35.8244 123.842 36 124.104 36H154.344C154.605 36 154.779 35.8683 154.779 35.561V26.8258C154.779 26.5624 154.605 26.4307 154.344 26.4307H138.309V24.8505H148.636C148.897 24.8505 149.028 24.7188 149.028 24.4115V15.6324C149.028 15.3251 148.897 15.1934 148.636 15.1934H138.309V13.6132H154.344C154.605 13.6132 154.779 13.4815 154.779 13.1742V4.43896C154.779 4.13169 154.605 4 154.344 4H124.104Z"/>
<path d="M172.658 25.6845C172.658 25.4211 172.44 25.2016 172.135 25.2016H157.712C157.407 25.2016 157.189 25.4211 157.189 25.6845C157.189 32.4005 164.727 36 173.355 36C184.248 36 190 32.0933 190 25.8162C190 19.1001 184.248 15.1056 173.311 15.1056C172.178 15.1056 172.091 14.3155 172.091 14.0082C172.091 13.4376 172.658 12.9547 173.355 12.9547C174.008 12.9547 174.575 13.3498 174.575 13.9643C174.575 14.3594 174.836 14.5789 175.185 14.5789H189.172C189.477 14.5789 189.695 14.3594 189.695 14.096C189.695 7.51166 182.113 4 173.573 4C164.989 4 156.971 8.38958 156.971 14.5789C156.971 21.3388 163.725 24.4993 173.442 24.5432C174.444 24.5432 175.098 25.0261 175.098 25.8162C175.098 26.3868 174.575 26.8697 173.921 26.8697C173.137 26.8697 172.658 26.4746 172.658 25.6845Z"/>
</mask>
<path d="M4.43574 4C4.13072 4 4 4.21948 4 4.48285V35.6049C4 35.8683 4.1743 36 4.43574 36H18.7279C18.9894 36 19.2072 35.7805 19.2072 35.5171V26.1674H24.0004C29.9264 26.1674 34.7631 21.2949 34.7631 14.8861C34.7631 8.91632 29.9264 4 24.0004 4H4.43574ZM18.7279 16.5542V13.8326H19.4687C20.253 13.8326 20.863 14.4472 20.863 15.1934C20.863 15.9835 20.253 16.5542 19.4687 16.5542H18.7279Z" fill="#06002B"/>
<path d="M61.6368 24.5871C65.4713 22.9191 68.0422 18.9684 68.0422 14.7106C68.0422 8.34568 63.4669 4 57.1487 4H38.0199C37.7584 4 37.5841 4.17558 37.5841 4.43896V35.561C37.5841 35.8244 37.7584 36 38.0199 36H50.8741C51.1356 36 51.3099 35.8244 51.3099 35.561V32.1811L53.8807 35.8244C53.9679 35.9561 54.0986 36 54.2293 36H68.6522C68.8265 36 68.9572 35.9122 69.0444 35.7805C69.1315 35.6488 69.1315 35.4733 69.0444 35.3416L61.6368 24.5871ZM51.4406 16.0713V13.3498H52.1813C52.9657 13.3498 53.6193 13.9643 53.6193 14.7106C53.6193 15.4568 52.9657 16.0713 52.1813 16.0713H51.4406Z" fill="#06002B"/>
<path d="M79.3315 19.5391C83.6889 19.5391 87.1748 16.0274 87.1748 11.6818C87.1748 7.33608 83.6889 4 79.3315 4C75.0177 4 71.4883 7.33608 71.4883 11.6818C71.4883 16.0274 75.0177 19.5391 79.3315 19.5391ZM72.1419 20.4609C71.924 20.4609 71.7061 20.6804 71.7061 20.8999V35.561C71.7061 35.8244 71.924 36 72.1419 36H86.5212C86.7391 36 86.9569 35.8244 86.9569 35.561V20.8999C86.9569 20.6804 86.7391 20.4609 86.5212 20.4609H72.1419Z" fill="#06002B"/>
<path d="M113.185 22.1728C113.141 22.1728 113.011 22.1728 112.967 22.085C112.923 21.9973 112.967 21.9095 113.011 21.8217L120.767 4.83402C121.028 4.26337 120.723 4 120.375 4H89.9601C89.7423 4 89.568 4.21948 89.568 4.43896V17.476C89.568 17.6955 89.7423 17.8711 89.9601 17.8711H97.3241C97.3677 17.8711 97.4984 17.8711 97.542 17.9588C97.5855 18.0466 97.542 18.1344 97.4984 18.2222L89.6551 35.2099C89.3937 35.7366 89.6987 36 90.0473 36H120.462C120.68 36 120.854 35.8244 120.854 35.6049V22.5679C120.854 22.3484 120.68 22.1728 120.462 22.1728H113.185Z" fill="#06002B"/>
<path d="M124.104 4C123.842 4 123.668 4.21948 123.668 4.43896V35.6049C123.668 35.8244 123.842 36 124.104 36H154.344C154.605 36 154.779 35.8683 154.779 35.561V26.8258C154.779 26.5624 154.605 26.4307 154.344 26.4307H138.309V24.8505H148.636C148.897 24.8505 149.028 24.7188 149.028 24.4115V15.6324C149.028 15.3251 148.897 15.1934 148.636 15.1934H138.309V13.6132H154.344C154.605 13.6132 154.779 13.4815 154.779 13.1742V4.43896C154.779 4.13169 154.605 4 154.344 4H124.104Z" fill="#06002B"/>
<path d="M172.658 25.6845C172.658 25.4211 172.44 25.2016 172.135 25.2016H157.712C157.407 25.2016 157.189 25.4211 157.189 25.6845C157.189 32.4005 164.727 36 173.355 36C184.248 36 190 32.0933 190 25.8162C190 19.1001 184.248 15.1056 173.311 15.1056C172.178 15.1056 172.091 14.3155 172.091 14.0082C172.091 13.4376 172.658 12.9547 173.355 12.9547C174.008 12.9547 174.575 13.3498 174.575 13.9643C174.575 14.3594 174.836 14.5789 175.185 14.5789H189.172C189.477 14.5789 189.695 14.3594 189.695 14.096C189.695 7.51166 182.113 4 173.573 4C164.989 4 156.971 8.38958 156.971 14.5789C156.971 21.3388 163.725 24.4993 173.442 24.5432C174.444 24.5432 175.098 25.0261 175.098 25.8162C175.098 26.3868 174.575 26.8697 173.921 26.8697C173.137 26.8697 172.658 26.4746 172.658 25.6845Z" fill="#06002B"/>
<path d="M4.43574 4C4.13072 4 4 4.21948 4 4.48285V35.6049C4 35.8683 4.1743 36 4.43574 36H18.7279C18.9894 36 19.2072 35.7805 19.2072 35.5171V26.1674H24.0004C29.9264 26.1674 34.7631 21.2949 34.7631 14.8861C34.7631 8.91632 29.9264 4 24.0004 4H4.43574ZM18.7279 16.5542V13.8326H19.4687C20.253 13.8326 20.863 14.4472 20.863 15.1934C20.863 15.9835 20.253 16.5542 19.4687 16.5542H18.7279Z" stroke="#06002B" stroke-width="8" mask="url(#path-1-outside-1_39_50)"/>
<path d="M61.6368 24.5871C65.4713 22.9191 68.0422 18.9684 68.0422 14.7106C68.0422 8.34568 63.4669 4 57.1487 4H38.0199C37.7584 4 37.5841 4.17558 37.5841 4.43896V35.561C37.5841 35.8244 37.7584 36 38.0199 36H50.8741C51.1356 36 51.3099 35.8244 51.3099 35.561V32.1811L53.8807 35.8244C53.9679 35.9561 54.0986 36 54.2293 36H68.6522C68.8265 36 68.9572 35.9122 69.0444 35.7805C69.1315 35.6488 69.1315 35.4733 69.0444 35.3416L61.6368 24.5871ZM51.4406 16.0713V13.3498H52.1813C52.9657 13.3498 53.6193 13.9643 53.6193 14.7106C53.6193 15.4568 52.9657 16.0713 52.1813 16.0713H51.4406Z" stroke="#06002B" stroke-width="8" mask="url(#path-1-outside-1_39_50)"/>
<path d="M79.3315 19.5391C83.6889 19.5391 87.1748 16.0274 87.1748 11.6818C87.1748 7.33608 83.6889 4 79.3315 4C75.0177 4 71.4883 7.33608 71.4883 11.6818C71.4883 16.0274 75.0177 19.5391 79.3315 19.5391ZM72.1419 20.4609C71.924 20.4609 71.7061 20.6804 71.7061 20.8999V35.561C71.7061 35.8244 71.924 36 72.1419 36H86.5212C86.7391 36 86.9569 35.8244 86.9569 35.561V20.8999C86.9569 20.6804 86.7391 20.4609 86.5212 20.4609H72.1419Z" stroke="#06002B" stroke-width="8" mask="url(#path-1-outside-1_39_50)"/>
<path d="M113.185 22.1728C113.141 22.1728 113.011 22.1728 112.967 22.085C112.923 21.9973 112.967 21.9095 113.011 21.8217L120.767 4.83402C121.028 4.26337 120.723 4 120.375 4H89.9601C89.7423 4 89.568 4.21948 89.568 4.43896V17.476C89.568 17.6955 89.7423 17.8711 89.9601 17.8711H97.3241C97.3677 17.8711 97.4984 17.8711 97.542 17.9588C97.5855 18.0466 97.542 18.1344 97.4984 18.2222L89.6551 35.2099C89.3937 35.7366 89.6987 36 90.0473 36H120.462C120.68 36 120.854 35.8244 120.854 35.6049V22.5679C120.854 22.3484 120.68 22.1728 120.462 22.1728H113.185Z" stroke="#06002B" stroke-width="8" mask="url(#path-1-outside-1_39_50)"/>
<path d="M124.104 4C123.842 4 123.668 4.21948 123.668 4.43896V35.6049C123.668 35.8244 123.842 36 124.104 36H154.344C154.605 36 154.779 35.8683 154.779 35.561V26.8258C154.779 26.5624 154.605 26.4307 154.344 26.4307H138.309V24.8505H148.636C148.897 24.8505 149.028 24.7188 149.028 24.4115V15.6324C149.028 15.3251 148.897 15.1934 148.636 15.1934H138.309V13.6132H154.344C154.605 13.6132 154.779 13.4815 154.779 13.1742V4.43896C154.779 4.13169 154.605 4 154.344 4H124.104Z" stroke="#06002B" stroke-width="8" mask="url(#path-1-outside-1_39_50)"/>
<path d="M172.658 25.6845C172.658 25.4211 172.44 25.2016 172.135 25.2016H157.712C157.407 25.2016 157.189 25.4211 157.189 25.6845C157.189 32.4005 164.727 36 173.355 36C184.248 36 190 32.0933 190 25.8162C190 19.1001 184.248 15.1056 173.311 15.1056C172.178 15.1056 172.091 14.3155 172.091 14.0082C172.091 13.4376 172.658 12.9547 173.355 12.9547C174.008 12.9547 174.575 13.3498 174.575 13.9643C174.575 14.3594 174.836 14.5789 175.185 14.5789H189.172C189.477 14.5789 189.695 14.3594 189.695 14.096C189.695 7.51166 182.113 4 173.573 4C164.989 4 156.971 8.38958 156.971 14.5789C156.971 21.3388 163.725 24.4993 173.442 24.5432C174.444 24.5432 175.098 25.0261 175.098 25.8162C175.098 26.3868 174.575 26.8697 173.921 26.8697C173.137 26.8697 172.658 26.4746 172.658 25.6845Z" stroke="#06002B" stroke-width="8" mask="url(#path-1-outside-1_39_50)"/>
<path d="M4.43574 2C4.13072 2 4 2.21948 4 2.48285V33.6049C4 33.8683 4.1743 34 4.43574 34H18.7279C18.9894 34 19.2072 33.7805 19.2072 33.5171V24.1674H24.0004C29.9264 24.1674 34.7631 19.2949 34.7631 12.8861C34.7631 6.91632 29.9264 2 24.0004 2H4.43574ZM18.7279 14.5542V11.8326H19.4687C20.253 11.8326 20.863 12.4472 20.863 13.1934C20.863 13.9835 20.253 14.5542 19.4687 14.5542H18.7279Z" fill="white"/>
<path d="M61.6368 22.5871C65.4713 20.9191 68.0422 16.9684 68.0422 12.7106C68.0422 6.34568 63.4669 2 57.1487 2H38.0199C37.7584 2 37.5841 2.17558 37.5841 2.43896V33.561C37.5841 33.8244 37.7584 34 38.0199 34H50.8741C51.1356 34 51.3099 33.8244 51.3099 33.561V30.1811L53.8807 33.8244C53.9679 33.9561 54.0986 34 54.2293 34H68.6522C68.8265 34 68.9572 33.9122 69.0444 33.7805C69.1315 33.6488 69.1315 33.4733 69.0444 33.3416L61.6368 22.5871ZM51.4406 14.0713V11.3498H52.1813C52.9657 11.3498 53.6193 11.9643 53.6193 12.7106C53.6193 13.4568 52.9657 14.0713 52.1813 14.0713H51.4406Z" fill="white"/>
<path d="M79.3315 17.5391C83.6889 17.5391 87.1748 14.0274 87.1748 9.68176C87.1748 5.33608 83.6889 2 79.3315 2C75.0177 2 71.4883 5.33608 71.4883 9.68176C71.4883 14.0274 75.0177 17.5391 79.3315 17.5391ZM72.1419 18.4609C71.924 18.4609 71.7061 18.6804 71.7061 18.8999V33.561C71.7061 33.8244 71.924 34 72.1419 34H86.5212C86.7391 34 86.9569 33.8244 86.9569 33.561V18.8999C86.9569 18.6804 86.7391 18.4609 86.5212 18.4609H72.1419Z" fill="white"/>
<path d="M113.185 20.1728C113.141 20.1728 113.011 20.1728 112.967 20.085C112.923 19.9973 112.967 19.9095 113.011 19.8217L120.767 2.83402C121.028 2.26337 120.723 2 120.375 2H89.9601C89.7423 2 89.568 2.21948 89.568 2.43896V15.476C89.568 15.6955 89.7423 15.8711 89.9601 15.8711H97.3241C97.3677 15.8711 97.4984 15.8711 97.542 15.9588C97.5855 16.0466 97.542 16.1344 97.4984 16.2222L89.6551 33.2099C89.3937 33.7366 89.6987 34 90.0473 34H120.462C120.68 34 120.854 33.8244 120.854 33.6049V20.5679C120.854 20.3484 120.68 20.1728 120.462 20.1728H113.185Z" fill="white"/>
<path d="M124.104 2C123.842 2 123.668 2.21948 123.668 2.43896V33.6049C123.668 33.8244 123.842 34 124.104 34H154.344C154.605 34 154.779 33.8683 154.779 33.561V24.8258C154.779 24.5624 154.605 24.4307 154.344 24.4307H138.309V22.8505H148.636C148.897 22.8505 149.028 22.7188 149.028 22.4115V13.6324C149.028 13.3251 148.897 13.1934 148.636 13.1934H138.309V11.6132H154.344C154.605 11.6132 154.779 11.4815 154.779 11.1742V2.43896C154.779 2.13169 154.605 2 154.344 2H124.104Z" fill="white"/>
<path d="M172.658 23.6845C172.658 23.4211 172.44 23.2016 172.135 23.2016H157.712C157.407 23.2016 157.189 23.4211 157.189 23.6845C157.189 30.4005 164.727 34 173.355 34C184.248 34 190 30.0933 190 23.8162C190 17.1001 184.248 13.1056 173.311 13.1056C172.178 13.1056 172.091 12.3155 172.091 12.0082C172.091 11.4376 172.658 10.9547 173.355 10.9547C174.008 10.9547 174.575 11.3498 174.575 11.9643C174.575 12.3594 174.836 12.5789 175.185 12.5789H189.172C189.477 12.5789 189.695 12.3594 189.695 12.096C189.695 5.51166 182.113 2 173.573 2C164.989 2 156.971 6.38958 156.971 12.5789C156.971 19.3388 163.725 22.4993 173.442 22.5432C174.444 22.5432 175.098 23.0261 175.098 23.8162C175.098 24.3868 174.575 24.8697 173.921 24.8697C173.137 24.8697 172.658 24.4746 172.658 23.6845Z" fill="white"/>
</svg>
